<?xml version="1.0" standalone="no"?>
<!DOCTYPE svg PUBLIC "-//W3C//DTD SVG 20010904//EN"
 "http://www.w3.org/TR/2001/REC-SVG-20010904/DTD/svg10.dtd">
<svg version="1.0" xmlns="http://www.w3.org/2000/svg"
 width="300.000000pt" height="167.000000pt" viewBox="0 0 300.000000 167.000000"
 preserveAspectRatio="xMidYMid meet">
<metadata>
Created by potrace 1.10, written by Peter Selinger 2001-2011
</metadata>
<g transform="translate(0.000000,167.000000) scale(0.100000,-0.100000)"
fill="currentColor" stroke="none">
<path d="M890 1018 c-33 -40 -77 -106 -98 -147 -30 -62 -37 -85 -37 -137 0
-68 15 -98 69 -138 38 -29 176 -28 256 1 86 31 1120 476 1117 480 -2 2 -226
-56 -498 -128 -272 -73 -523 -139 -559 -146 -88 -19 -143 -10 -187 31 -49 45
-56 107 -20 194 13 34 23 62 21 62 -2 0 -31 -33 -64 -72z"/>
</g>
</svg>
